<svg width="215" height="50" viewBox="0 0 215 50" fill="none" xmlns="http://www.w3.org/2000/svg">
<g clip-path="url(#clip0_1_338)">
<path d="M70.4639 37.9086H68.2155V30.6576H68.1034C67.6685 31.2813 67.1105 31.758 66.4294 32.0876C65.7483 32.4172 64.8675 32.5834 63.7898 32.5834C61.6344 32.5834 60.0507 31.9841 59.0386 30.7856C58.0265 29.5871 57.5205 27.7212 57.5205 25.1907C57.5205 22.6602 58.166 20.9468 59.4544 19.7102C60.7427 18.4735 62.6601 17.8552 65.2012 17.8552C66.32 17.8552 67.3621 17.9505 68.3304 18.1385C69.2987 18.3264 70.0099 18.5253 70.4639 18.7323V37.9113V37.9086ZM64.1345 30.6848C66.3829 30.6848 67.7451 29.5053 68.2183 27.1437V20.3176C67.8025 20.1106 67.3074 19.9635 66.7303 19.8791C66.1531 19.7946 65.4966 19.751 64.7608 19.751C63.2482 19.751 62.0584 20.1869 61.1885 21.0531C60.3187 21.922 59.8838 23.2921 59.8838 25.1607C59.8838 25.9724 59.9549 26.7133 60.0972 27.3834C60.2394 28.0535 60.4801 28.6337 60.8193 29.1267C61.1585 29.617 61.5988 30.0011 62.1377 30.2735C62.6765 30.5486 63.344 30.6848 64.1372 30.6848H64.1345Z" fill="#FCF3EA"/>
<path d="M82.6114 18.0786H86.6788V27.7375C86.6788 28.6637 86.7363 29.5516 86.8484 30.4015H88.7549V32.2429H84.9447L84.8599 29.8349H84.745C84.2526 30.6467 83.6016 31.3086 82.7865 31.8179C81.9741 32.3273 80.9894 32.5834 79.8351 32.5834C78.9653 32.5834 78.224 32.4853 77.6086 32.2864C76.9931 32.0876 76.4871 31.7444 76.0905 31.2514C75.6939 30.7611 75.4012 30.1046 75.2125 29.282C75.0237 28.4594 74.928 27.4352 74.928 26.2094V19.9771H73.0215V18.0786H77.1737V25.7545C77.1737 26.5281 77.2065 27.2227 77.2721 27.8356C77.3378 28.4485 77.4746 28.9687 77.6824 29.3937C77.8903 29.8186 78.1967 30.14 78.5988 30.3579C79.0036 30.5758 79.5452 30.6848 80.2208 30.6848C81.2 30.6848 82.0507 30.3634 82.7756 29.7205C83.5004 29.0777 84.0502 28.2769 84.4277 27.3126V19.9744H82.606V18.0758L82.6114 18.0786Z" fill="#FCF3EA"/>
<path d="M103.859 30.456C103.517 30.7583 103.115 31.0416 102.65 31.3058C102.185 31.5701 101.679 31.7961 101.129 31.9868C100.58 32.1748 100.005 32.3219 99.4089 32.4254C98.8126 32.5289 98.2081 32.5806 97.6036 32.5806C96.4657 32.5806 95.4591 32.4063 94.5893 32.0576C93.7167 31.709 92.9864 31.2078 92.3983 30.5568C91.8102 29.9058 91.3644 29.1267 91.0608 28.2197C90.7571 27.3126 90.6067 26.2939 90.6067 25.1607C90.6067 23.9704 90.7735 22.9135 91.1045 21.9874C91.4355 21.0612 91.9142 20.2876 92.5405 19.6639C93.1669 19.0401 93.9246 18.5634 94.8163 18.2338C95.708 17.9042 96.7037 17.7381 97.8033 17.7381C98.5992 17.7381 99.387 17.8416 100.164 18.0486C100.941 18.2556 101.63 18.6479 102.226 19.2253C102.823 19.8028 103.282 20.5954 103.605 21.606C103.928 22.6166 104.04 23.9241 103.947 25.5284H92.9673C92.9673 27.2282 93.4268 28.4975 94.3431 29.3392C95.2594 30.1809 96.4848 30.6003 98.0166 30.6003C98.5281 30.6003 99.0341 30.5404 99.5347 30.4151C100.035 30.2925 100.514 30.1455 100.968 29.9766C101.422 29.8077 101.824 29.617 102.174 29.41C102.524 29.203 102.792 29.0123 102.984 28.8434L103.865 30.4587L103.859 30.456ZM97.8716 19.6067C97.248 19.6067 96.6572 19.672 96.0992 19.8055C95.5412 19.939 95.0488 20.1596 94.6248 20.4701C94.2009 20.7807 93.8507 21.1893 93.5772 21.6877C93.3037 22.1889 93.1286 22.8073 93.052 23.5427H101.871C101.775 22.2952 101.373 21.3282 100.664 20.639C99.9559 19.9499 99.0232 19.6039 97.8716 19.6039V19.6067Z" fill="#FCF3EA"/>
<path d="M105.366 12.4128H109.918V19.6938H110.06C110.553 19.0701 111.187 18.5879 111.967 18.2502C112.744 17.9097 113.589 17.7408 114.5 17.7408C118.671 17.7408 120.758 20.1406 120.758 24.9374C120.758 27.3725 120.085 29.2384 118.739 30.5322C117.394 31.8261 115.476 32.4717 112.992 32.4717C111.816 32.4717 110.755 32.3573 109.806 32.1312C108.857 31.9051 108.165 31.6409 107.73 31.3385V14.3141H105.369V12.4156L105.366 12.4128ZM114.215 19.6366C113.077 19.6366 112.158 19.9581 111.455 20.6009C110.752 21.2437 110.241 22.1508 109.918 23.3194V29.8349C110.353 30.061 110.875 30.2408 111.483 30.3743C112.09 30.5077 112.724 30.5731 113.389 30.5731C114.147 30.5731 114.836 30.4642 115.452 30.2462C116.067 30.0283 116.595 29.6906 117.03 29.2275C117.465 28.7644 117.801 28.1761 118.039 27.457C118.277 26.7406 118.395 25.8907 118.395 24.9074C118.395 24.191 118.318 23.51 118.168 22.8672C118.014 22.2243 117.774 21.6632 117.443 21.1811C117.112 20.699 116.68 20.3231 116.149 20.0479C115.618 19.7755 114.973 19.6366 114.215 19.6366Z" fill="#FCF3EA"/>
<path d="M136.858 30.456C136.516 30.7583 136.114 31.0416 135.649 31.3058C135.184 31.5701 134.678 31.7961 134.128 31.9868C133.578 32.1748 133.004 32.3219 132.408 32.4254C131.811 32.5289 131.207 32.5806 130.602 32.5806C129.464 32.5806 128.458 32.4063 127.588 32.0576C126.716 31.709 125.985 31.2078 125.397 30.5568C124.809 29.9058 124.363 29.1267 124.06 28.2197C123.756 27.3126 123.605 26.2939 123.605 25.1607C123.605 23.9704 123.772 22.9135 124.103 21.9874C124.434 21.0612 124.913 20.2876 125.539 19.6639C126.166 19.0401 126.923 18.5634 127.815 18.2338C128.707 17.9042 129.702 17.7381 130.802 17.7381C131.598 17.7381 132.386 17.8416 133.163 18.0486C133.939 18.2556 134.629 18.6479 135.225 19.2253C135.821 19.8028 136.281 20.5954 136.604 21.606C136.926 22.6166 137.039 23.9241 136.946 25.5284H125.966C125.966 27.2282 126.426 28.4975 127.342 29.3392C128.258 30.1809 129.484 30.6003 131.015 30.6003C131.527 30.6003 132.033 30.5404 132.533 30.4151C133.034 30.2925 133.513 30.1455 133.967 29.9766C134.421 29.8077 134.823 29.617 135.173 29.41C135.523 29.203 135.791 29.0123 135.983 28.8434L136.863 30.4587L136.858 30.456ZM130.868 19.6067C130.244 19.6067 129.653 19.672 129.095 19.8055C128.537 19.939 128.045 20.1596 127.621 20.4701C127.197 20.7807 126.847 21.1893 126.573 21.6877C126.3 22.1889 126.125 22.8073 126.048 23.5427H134.867C134.771 22.2952 134.369 21.3282 133.66 20.639C132.952 19.9499 132.019 19.6039 130.868 19.6039V19.6067Z" fill="#FCF3EA"/>
<path d="M150.797 20.2577C150.359 20.1079 149.892 19.9798 149.388 19.8763C148.885 19.7728 148.387 19.7211 147.895 19.7211C146.035 19.7211 144.651 20.1569 143.743 21.0285C142.835 21.9002 142.378 23.2812 142.378 25.1743C142.378 26.0078 142.509 26.7515 142.777 27.4052C143.043 28.0589 143.423 28.6119 143.915 29.0668C144.407 29.5217 145.001 29.8703 145.693 30.1182C146.385 30.3634 147.148 30.4887 147.982 30.4887C148.874 30.4887 149.741 30.3361 150.586 30.0283C151.429 29.7205 152.137 29.3174 152.706 28.8189L153.702 30.4614C153.437 30.6875 153.106 30.9245 152.706 31.1696C152.307 31.4148 151.847 31.6463 151.328 31.8642C150.805 32.0822 150.228 32.2565 149.594 32.3872C148.959 32.518 148.27 32.5861 147.531 32.5861C146.298 32.5861 145.212 32.4117 144.273 32.0631C143.335 31.7144 142.553 31.2132 141.927 30.5622C141.3 29.9112 140.827 29.1267 140.504 28.2115C140.181 27.2963 140.02 26.2802 140.02 25.1662C140.02 23.9758 140.187 22.9189 140.518 21.9928C140.849 21.0667 141.327 20.2931 141.954 19.6693C142.58 19.0455 143.338 18.5689 144.23 18.2393C145.121 17.9097 146.117 17.7435 147.217 17.7435C148.62 17.7435 149.763 17.8661 150.644 18.1112C151.525 18.3564 152.269 18.6315 152.876 18.9339L152.849 19.0183V22.9571H150.8V20.2659L150.797 20.2577Z" fill="#FCF3EA"/>
<path d="M176.085 12.4128H180.721V27.3998C180.721 27.5686 180.729 27.7811 180.749 28.0372C180.768 28.2932 180.792 28.5601 180.82 28.8434C180.847 29.1267 180.88 29.4046 180.918 29.6797C180.956 29.9548 180.995 30.1945 181.033 30.4015H182.94V32.2429H179.129L178.842 30.061H178.727C178.311 30.7801 177.691 31.3794 176.87 31.8588C176.047 32.3409 175.097 32.5806 174.02 32.5806C171.881 32.5806 170.308 31.9814 169.296 30.7829C168.284 29.5843 167.778 27.7185 167.778 25.188C167.778 23.9976 167.947 22.9462 168.289 22.0282C168.629 21.113 169.115 20.3476 169.75 19.7347C170.385 19.1218 171.145 18.6533 172.034 18.3319C172.923 18.0105 173.916 17.8497 175.013 17.8497C175.409 17.8497 175.765 17.8606 176.077 17.877C176.389 17.8961 176.678 17.9233 176.941 17.9614C177.206 17.9996 177.458 18.0513 177.693 18.1167C177.929 18.1821 178.191 18.2529 178.473 18.3292V14.3059H176.082V12.4074L176.085 12.4128ZM174.392 30.6848C175.546 30.6848 176.451 30.3879 177.113 29.7914C177.775 29.1975 178.229 28.3041 178.476 27.1138V20.541C178.06 20.2577 177.592 20.0507 177.072 19.9172C176.553 19.7864 175.866 19.7183 175.018 19.7183C173.506 19.7183 172.316 20.1569 171.446 21.0367C170.576 21.9138 170.141 23.2976 170.141 25.188C170.141 25.9615 170.212 26.6861 170.354 27.3562C170.497 28.0263 170.732 28.6065 171.063 29.0995C171.394 29.5898 171.832 29.9766 172.381 30.2599C172.931 30.5431 173.601 30.6848 174.395 30.6848H174.392Z" fill="#FCF3EA"/>
<path d="M197.735 30.456C197.393 30.7583 196.991 31.0416 196.526 31.3058C196.061 31.5701 195.555 31.7961 195.005 31.9868C194.455 32.1748 193.881 32.3219 193.284 32.4254C192.688 32.5289 192.084 32.5806 191.479 32.5806C190.341 32.5806 189.335 32.4063 188.465 32.0576C187.592 31.709 186.862 31.2078 186.274 30.5568C185.686 29.9058 185.24 29.1267 184.936 28.2197C184.633 27.3126 184.482 26.2939 184.482 25.1607C184.482 23.9704 184.649 22.9135 184.98 21.9874C185.311 21.0612 185.79 20.2876 186.416 19.6639C187.042 19.0401 187.8 18.5634 188.692 18.2338C189.584 17.9042 190.579 17.7381 191.679 17.7381C192.475 17.7381 193.262 17.8416 194.039 18.0486C194.816 18.2556 195.505 18.6479 196.102 19.2253C196.698 19.8028 197.158 20.5954 197.48 21.606C197.803 22.6166 197.915 23.9241 197.822 25.5284H186.843C186.843 27.2282 187.302 28.4975 188.219 29.3392C189.135 30.1809 190.36 30.6003 191.892 30.6003C192.404 30.6003 192.91 30.5404 193.41 30.4151C193.911 30.2925 194.389 30.1455 194.843 29.9766C195.298 29.8077 195.7 29.617 196.05 29.41C196.4 29.203 196.668 29.0123 196.859 28.8434L197.74 30.4587L197.735 30.456ZM191.744 19.6067C191.121 19.6067 190.53 19.672 189.972 19.8055C189.414 19.939 188.922 20.1596 188.498 20.4701C188.074 20.7807 187.724 21.1893 187.45 21.6877C187.176 22.1889 187.001 22.8073 186.925 23.5427H195.743C195.648 22.2952 195.246 21.3282 194.537 20.639C193.829 19.9499 192.896 19.6039 191.744 19.6039V19.6067Z" fill="#FCF3EA"/>
<path d="M207.762 29.4944H208.071L212.527 18.0786H215.003L209.001 32.2429H206.526L200.41 18.0786H203.028L207.765 29.4944H207.762Z" fill="#FCF3EA"/>
<path d="M163.128 27.6095L161.528 26.6834C161.292 26.5472 161.003 26.5472 160.767 26.6834L158.182 28.1706C157.947 28.3068 157.802 28.5547 157.805 28.8271L157.813 31.7825C157.813 32.0495 157.958 32.2973 158.191 32.4335L159.791 33.3597C159.908 33.4278 160.04 33.4604 160.171 33.4604C160.302 33.4604 160.434 33.4278 160.548 33.3597L163.133 31.8724C163.369 31.7362 163.514 31.4883 163.511 31.216L163.503 28.2605C163.503 27.9936 163.358 27.7457 163.125 27.6095H163.128Z" fill="#FCF3EA"/>
<path d="M162.747 28.2605L162.756 31.216L160.171 32.7032L160.163 29.7478L162.747 28.2605Z" fill="#CF4339"/>
<path d="M160.171 32.7032L158.571 31.7771L158.562 28.8189L160.163 29.7478L160.171 32.7032Z" fill="#7A1E23"/>
<path d="M160.163 29.7478L158.562 28.8189L161.147 27.3344L162.748 28.2605L160.163 29.7478Z" fill="#E5A992"/>
<path d="M25.1046 50C38.9694 50 50.2092 38.8071 50.2092 25C50.2092 11.1929 38.9694 0 25.1046 0C11.2397 0 0 11.1929 0 25C0 38.8071 11.2397 50 25.1046 50Z" fill="#FCF3EA"/>
<path d="M8.30165 39.2052L12.2077 41.466C12.3089 41.5259 12.4155 41.575 12.5249 41.6104L15.3642 43.2529C15.4599 43.3074 15.5584 43.3537 15.6596 43.3891L18.518 45.0425C18.6137 45.097 18.7122 45.1433 18.8161 45.1787L21.6745 46.8321C21.9617 46.9983 22.2818 47.0827 22.6018 47.0827C22.9218 47.0827 23.2391 47.001 23.5263 46.8348L26.6856 45.018C27.26 44.6884 27.6101 44.0782 27.6101 43.419L27.5992 39.8071C27.5992 39.1534 27.2463 38.5487 26.6801 38.2218L24.4399 36.9253V35.4952L26.6528 34.2204C27.2272 33.8908 27.5773 33.2807 27.5773 32.6215L27.5253 14.6083C27.5253 13.9546 27.1725 13.3499 26.6063 13.023L22.7003 10.7621C22.61 10.7104 22.5143 10.6641 22.4158 10.6287L19.5465 8.96709C18.9748 8.63478 18.2663 8.63478 17.6947 8.96709L11.3898 12.5926C10.8154 12.9222 10.4653 13.5324 10.4653 14.1915L10.4735 16.7275L8.25241 18.005C7.678 18.3346 7.32788 18.9448 7.32788 19.6039L7.37985 37.6171C7.37985 38.2709 7.7327 38.8756 8.29891 39.2024L8.30165 39.2052Z" fill="#FCF3EA"/>
<path d="M22.8781 38.0802L26.7841 40.341C27.0713 40.5072 27.3914 40.5889 27.7114 40.5889C28.0314 40.5889 28.3487 40.5072 28.6359 40.341L38.0836 34.9096C38.6581 34.58 39.0082 33.9698 39.0082 33.3106L39 30.7774L41.2183 29.5026C41.7927 29.173 42.1428 28.5629 42.1428 27.9037L42.0909 9.8905C42.0909 9.23676 41.738 8.63205 41.1718 8.30518L37.2658 6.04434C37.1701 5.98987 37.0716 5.94356 36.9704 5.90815L34.112 4.25474C33.5403 3.92242 32.8319 3.92242 32.2602 4.25474L22.8125 9.68621C22.2381 10.0158 21.8879 10.626 21.8879 11.2851L21.9591 36.4949C21.9591 37.1486 22.3119 37.7533 22.8781 38.0802Z" fill="#FCF3EA"/>
<path d="M30.8596 33.3188L26.9536 31.058L33.2311 27.4488L37.1399 29.7096L30.8596 33.3188Z" fill="#E5A992"/>
<path d="M37.1399 29.7096L33.2311 27.4488L33.1819 9.46557L37.0879 11.7264L37.1399 29.7096Z" fill="#7A1E23"/>
<path d="M37.0989 11.7073L33.1929 9.4465L36.3385 7.63783L40.2445 9.89867L37.0989 11.7073Z" fill="#E5A992"/>
<path d="M37.0988 11.7073L40.2443 9.89867L40.2963 27.9119L37.1507 29.7205L37.1617 33.3188L27.7139 38.7503L27.6428 13.5405L37.0905 8.10907L37.1015 11.7073H37.0988ZM37.1398 29.7096L37.0878 11.7264L30.8103 15.3356L30.8623 33.3188L37.1398 29.7096Z" fill="#CF4339"/>
<path d="M27.7113 38.7503L23.8052 36.4894L23.7341 11.2797L27.6401 13.5405L27.7113 38.7503Z" fill="#7A1E23"/>
<path d="M27.6401 13.5405L23.7341 11.2797L33.1819 5.84822L37.0906 8.10907L27.6401 13.5405Z" fill="#E5A992"/>
<path d="M22.6072 41.624L18.7012 39.3632L21.8468 37.5545L25.7528 39.8153L22.6072 41.624Z" fill="#E5A992"/>
<path d="M22.6044 45.2441L18.6984 42.9832L18.6875 39.3849L22.5935 41.6458L22.6044 45.2441Z" fill="#7A1E23"/>
<path d="M19.448 43.4545L15.5419 41.1936L15.531 37.5953L19.4397 39.8562L19.448 43.4545Z" fill="#7A1E23"/>
<path d="M16.2941 41.6649L12.3881 39.404L12.3772 35.803L16.2832 38.0666L16.2941 41.6649Z" fill="#7A1E23"/>
<path d="M16.2942 38.0421L12.3882 35.7812L18.6657 32.172L22.5744 34.4329L16.2942 38.0421Z" fill="#E5A992"/>
<path d="M22.5361 16.4279L18.6301 14.167L21.7757 12.3584L25.6817 14.6192L22.5361 16.4279Z" fill="#E5A992"/>
<path d="M22.5744 34.4329L18.6657 32.172L18.6165 14.1888L22.5225 16.4497L22.5744 34.4329Z" fill="#7A1E23"/>
<path d="M13.0857 21.8621L9.17969 19.6012L12.3253 17.7925L16.2313 20.0534L13.0857 21.8621Z" fill="#E5A992"/>
<path d="M13.1349 39.8752L9.22892 37.6144L9.17969 19.6012L13.0857 21.8621L13.1349 39.8752Z" fill="#7A1E23"/>
<path d="M16.2232 16.4524L12.3145 14.1915L18.6193 10.566L22.5253 12.8269L16.2232 16.4524Z" fill="#E5A992"/>
<path d="M16.2314 20.0534L12.3254 17.7925L12.3145 14.1915L16.2232 16.4524L16.2314 20.0534Z" fill="#7A1E23"/>
<path d="M25.7338 32.6324L22.5882 34.4411L22.6074 41.624L25.753 39.8153L25.7639 43.4272L22.6046 45.2441L22.5937 41.6458L19.4481 43.4545L19.4372 39.8562L16.2916 41.6649L16.2806 38.0666L13.1323 39.8752L13.0803 21.8621L16.2287 20.0534L16.2177 16.4524L22.5226 12.8269L22.5335 16.4279L25.6791 14.6192L25.7311 32.6324H25.7338ZM22.5745 34.4329L22.5226 16.4497L16.2451 20.0588L16.297 38.0421L22.5745 34.4329Z" fill="#CF4339"/>
</g>
<defs>
<clipPath id="clip0_1_338">
<rect width="215" height="50" fill="white"/>
</clipPath>
</defs>
</svg>
